<svg xmlns="http://www.w3.org/2000/svg" width="360" height="423" viewBox="0 0 360 423" fill="none">
    <path fill-rule="evenodd" clip-rule="evenodd"
        d="M-317.268 217.773C-233.308 121.036 -101.82 92.5125 21.0495 56.3126C140.065 21.2486 261.558 -20.0675 381.436 11.9221C504.931 44.8767 626.268 118.554 683.177 233.002C737.258 341.763 684.045 467.758 667.964 588.154C654.377 689.885 644.323 789.01 596.766 879.962C542.156 984.403 486.791 1103.72 376.568 1145.45C265.072 1187.65 132.497 1157.28 31.4868 1093.96C-59.1591 1037.13 -58.5383 904.786 -131.756 826.78C-223.041 729.524 -402.983 717.259 -441.851 589.662C-480.902 461.465 -405.109 318.984 -317.268 217.773Z"
        fill="white" />
</svg>